# xmcd CD database file
#
# Track frame offsets:
#	150
#	11940
#	21747
#	32284
#	46779
#	58462
#	72236
#	83495
#	94622
#	106402
#	114845
#	127325
#
# Disc length: 1860 seconds
#
# Revision: 0
# Processed by: cddbd v1.5.2PL0 Copyright (c) Steve Scherf et al.
# Submitted via: CDex 1.70beta2
#
DISCID=9e07420c
DTITLE=TBoCC-V4 - The Best of Classic Country - V4
DYEAR=2010
DGENRE=Country
TTITLE0=Johnny Cash - I Walk the Line
TTITLE1=Loretta Lynn - Don't Come Home A-Drinkin' (With Lovin' On Your Mind)
TTITLE2=Bob Wells and the Texas Playboys - Bubbles In My Beer
TTITLE3=Conway Twitty - Fifteen Years Ago
TTITLE4=Patsy Cline - Sweet Dreams (Of You)
TTITLE5=Randy Travis - Diggin' Up Bones
TTITLE6=Ernest Tubb - The Yellow Rose of Texas
TTITLE7=George Jones - Tender Years
TTITLE8=Freddy Fender - Before the Next teardrop Falls
TTITLE9=Roger Miller - Dang Me
TTITLE10=Bill Anderson - My Life (Throw It Away If I Want To)
TTITLE11=Flatt and Scruggs - Foggy Mountain Breakdown
EXTD=YEAR: 2010
EXTT0=
EXTT1=
EXTT2=
EXTT3=
EXTT4=
EXTT5=
EXTT6=
EXTT7=
EXTT8=
EXTT9=
EXTT10=
EXTT11=
PLAYORDER=
